<mxfile host="Electron" modified="2025-03-13T16:55:05.244Z" agent="Mozilla/5.0 (Windows NT 10.0; Win64; x64) AppleWebKit/537.36 (KHTML, like Gecko) draw.io/24.2.5 Chrome/120.0.6099.109 Electron/28.1.0 Safari/537.36" etag="ziK-VS9GMVN5Be9Qln4w" version="24.2.5" type="device">
  <diagram name="Page-1" id="929967ad-93f9-6ef4-fab6-5d389245f69c">
    <mxGraphModel dx="868" dy="1022" grid="1" gridSize="10" guides="1" tooltips="1" connect="1" arrows="1" fold="1" page="1" pageScale="1.5" pageWidth="1169" pageHeight="826" background="none" math="0" shadow="0">
      <root>
        <mxCell id="0" style=";html=1;" />
        <mxCell id="1" style=";html=1;" parent="0" />
        <mxCell id="bv0Y557g5dtvpJnbTj5W-1" value="Advaisor" style="swimlane;fontStyle=1;align=center;verticalAlign=top;childLayout=stackLayout;horizontal=1;startSize=26;horizontalStack=0;resizeParent=1;resizeParentMax=0;resizeLast=0;collapsible=1;marginBottom=0;whiteSpace=wrap;html=1;" vertex="1" parent="1">
          <mxGeometry x="520" y="680" width="170" height="248" as="geometry" />
        </mxCell>
        <mxCell id="bv0Y557g5dtvpJnbTj5W-2" value="AdvaisorName:String&lt;div&gt;numberOfStudent:int&lt;/div&gt;&lt;div&gt;AdvaisorEmail:String&lt;/div&gt;&lt;div&gt;courses:ArrayList&amp;lt;String&amp;gt;&lt;/div&gt;&lt;div&gt;salary:double&lt;/div&gt;&lt;div&gt;hoursWorked:int&lt;/div&gt;" style="text;strokeColor=none;fillColor=none;align=left;verticalAlign=top;spacingLeft=4;spacingRight=4;overflow=hidden;rotatable=0;points=[[0,0.5],[1,0.5]];portConstraint=eastwest;whiteSpace=wrap;html=1;" vertex="1" parent="bv0Y557g5dtvpJnbTj5W-1">
          <mxGeometry y="26" width="170" height="104" as="geometry" />
        </mxCell>
        <mxCell id="bv0Y557g5dtvpJnbTj5W-3" value="" style="line;strokeWidth=1;fillColor=none;align=left;verticalAlign=middle;spacingTop=-1;spacingLeft=3;spacingRight=3;rotatable=0;labelPosition=right;points=[];portConstraint=eastwest;strokeColor=inherit;" vertex="1" parent="bv0Y557g5dtvpJnbTj5W-1">
          <mxGeometry y="130" width="170" height="8" as="geometry" />
        </mxCell>
        <mxCell id="bv0Y557g5dtvpJnbTj5W-4" value="+addcours&lt;div&gt;+removeCours&lt;/div&gt;&lt;div&gt;+getAdvisorStudentNum&lt;/div&gt;&lt;div&gt;+calcSalary&lt;/div&gt;&lt;div&gt;+SAFADY&lt;/div&gt;" style="text;strokeColor=none;fillColor=none;align=left;verticalAlign=top;spacingLeft=4;spacingRight=4;overflow=hidden;rotatable=0;points=[[0,0.5],[1,0.5]];portConstraint=eastwest;whiteSpace=wrap;html=1;" vertex="1" parent="bv0Y557g5dtvpJnbTj5W-1">
          <mxGeometry y="138" width="170" height="110" as="geometry" />
        </mxCell>
        <mxCell id="bv0Y557g5dtvpJnbTj5W-5" value="stusent" style="swimlane;fontStyle=1;align=center;verticalAlign=top;childLayout=stackLayout;horizontal=1;startSize=26;horizontalStack=0;resizeParent=1;resizeParentMax=0;resizeLast=0;collapsible=1;marginBottom=0;whiteSpace=wrap;html=1;" vertex="1" parent="1">
          <mxGeometry x="750" y="682" width="170" height="246" as="geometry" />
        </mxCell>
        <mxCell id="bv0Y557g5dtvpJnbTj5W-6" value="id:String&lt;div&gt;email:String&lt;/div&gt;&lt;div&gt;name:String&lt;/div&gt;&lt;div&gt;GBA:double&lt;/div&gt;&lt;div&gt;academicPlan:String&lt;/div&gt;&lt;div&gt;advaisorName:String&lt;/div&gt;&lt;div&gt;courses:ArrayList&amp;lt;String&amp;gt;&lt;/div&gt;" style="text;strokeColor=none;fillColor=none;align=left;verticalAlign=top;spacingLeft=4;spacingRight=4;overflow=hidden;rotatable=0;points=[[0,0.5],[1,0.5]];portConstraint=eastwest;whiteSpace=wrap;html=1;" vertex="1" parent="bv0Y557g5dtvpJnbTj5W-5">
          <mxGeometry y="26" width="170" height="114" as="geometry" />
        </mxCell>
        <mxCell id="bv0Y557g5dtvpJnbTj5W-7" value="" style="line;strokeWidth=1;fillColor=none;align=left;verticalAlign=middle;spacingTop=-1;spacingLeft=3;spacingRight=3;rotatable=0;labelPosition=right;points=[];portConstraint=eastwest;strokeColor=inherit;" vertex="1" parent="bv0Y557g5dtvpJnbTj5W-5">
          <mxGeometry y="140" width="170" height="8" as="geometry" />
        </mxCell>
        <mxCell id="bv0Y557g5dtvpJnbTj5W-8" value="+updateStudentCourses&lt;div&gt;+firstClassHonors&lt;/div&gt;&lt;div&gt;+isValidCours&lt;/div&gt;" style="text;strokeColor=none;fillColor=none;align=left;verticalAlign=top;spacingLeft=4;spacingRight=4;overflow=hidden;rotatable=0;points=[[0,0.5],[1,0.5]];portConstraint=eastwest;whiteSpace=wrap;html=1;" vertex="1" parent="bv0Y557g5dtvpJnbTj5W-5">
          <mxGeometry y="148" width="170" height="98" as="geometry" />
        </mxCell>
      </root>
    </mxGraphModel>
  </diagram>
</mxfile>
